<?xml version="1.0" encoding="UTF-8"?>
<!DOCTYPE svg PUBLIC "-//W3C//DTD SVG 1.1//EN" "http://www.w3.org/Graphics/SVG/1.1/DTD/svg11.dtd">
<svg xmlns="http://www.w3.org/2000/svg" version="1.1" width="167px" height="167px" style="shape-rendering:geometricPrecision; text-rendering:geometricPrecision; image-rendering:optimizeQuality; fill-rule:evenodd; clip-rule:evenodd" xmlns:xlink="http://www.w3.org/1999/xlink">
<g><path style="opacity:0.984" fill="#fefffe" d="M 73.5,7.5 C 113.081,5.61122 140.247,22.9446 155,59.5C 165.214,104.907 149.048,136.74 106.5,155C 61.0933,165.214 29.26,149.048 11,106.5C 0.785761,61.0933 16.9524,29.26 59.5,11C 64.2954,9.80115 68.9621,8.63448 73.5,7.5 Z M 76.5,59.5 C 84.4315,65.9279 91.9315,72.9279 99,80.5C 99.6667,82.1667 99.6667,83.8333 99,85.5C 91.9696,92.8648 84.6363,99.8648 77,106.5C 73.4719,105.327 72.1386,102.994 73,99.5C 78.5,94 84,88.5 89.5,83C 84,77.5 78.5,72 73,66.5C 72.1762,63.1604 73.3429,60.827 76.5,59.5 Z"/></g>
</svg>
